{
  "accessors": [
    {
      "bufferView": 2,
      "componentType": 5126,
      "count": 154,
      "max": [
        0.4000000059604645,
        0.2800000011920929,
        1.6174813508987427
      ],
      "min": [
        -0.4000000059604645,
        -0.2800000011920929,
        0.09999999403953552
      ],
      "type": "VEC3"
    },
    {
      "bufferView": 2,
      "byteOffset": 1848,
      "componentType": 5126,
      "count": 154,
      "max": [
        1.0,
        1.0,
        1.0
      ],
      "min": [
        -1.0,
        -1.0,
        -1.0
      ],
      "type": "VEC3"
    },
    {
      "bufferView": 3,
      "componentType": 5126,
      "count": 154,
      "max": [
        1.0,
        1.0,
        0.0432259701192379,
        1.0
      ],
      "min": [
        -1.0,
        -1.0,
        -0.01944790594279766,
        1.0
      ],
      "type": "VEC4"
    },
    {
      "bufferView": 1,
      "componentType": 5126,
      "count": 154,
      "max": [
        0.9795782566070557,
        0.9965459704399109
      ],
      "min": [
        0.0005977749824523926,
        0.000515371561050415
      ],
      "type": "VEC2"
    },
    {
      "bufferView": 0,
      "componentType": 5125,
      "count": 312,
      "type": "SCALAR"
    },
    {
      "bufferView": 2,
      "byteOffset": 3696,
      "componentType": 5126,
      "count": 212,
      "max": [
        0.429324746131897,
        0.29343125224113464,
        0.16006243228912354
      ],
      "min": [
        -0.42932480573654175,
        -0.2934311330318451,
        -0.07967185974121094
      ],
      "type": "VEC3"
    },
    {
      "bufferView": 2,
      "byteOffset": 6240,
      "componentType": 5126,
      "count": 212,
      "max": [
        1.0,
        1.0,
        1.0
      ],
      "min": [
        -1.0,
        -1.0,
        -1.0
      ],
      "type": "VEC3"
    },
    {
      "bufferView": 3,
      "byteOffset": 2464,
      "componentType": 5126,
      "count": 212,
      "max": [
        1.0,
        1.0,
        1.0,
        1.0
      ],
      "min": [
        -2.48048172579729e-06,
        -1.0,
        -1.0,
        1.0
      ],
      "type": "VEC4"
    },
    {
      "bufferView": 1,
      "byteOffset": 1232,
      "componentType": 5126,
      "count": 212,
      "max": [
        0.9511356949806213,
        0.9968857765197754
      ],
      "min": [
        0.0015196655876934528,
        0.43284496665000916
      ],
      "type": "VEC2"
    },
    {
      "bufferView": 0,
      "byteOffset": 1248,
      "componentType": 5125,
      "count": 564,
      "type": "SCALAR"
    },
    {
      "bufferView": 2,
      "byteOffset": 8784,
      "componentType": 5126,
      "count": 36,
      "max": [
        0.07690407335758209,
        0.00474780797958374,
        0.10000014305114746
      ],
      "min": [
        -0.07690402865409851,
        -0.0038090944290161133,
        -0.09999990463256836
      ],
      "type": "VEC3"
    },
    {
      "bufferView": 2,
      "byteOffset": 9216,
      "componentType": 5126,
      "count": 36,
      "max": [
        1.0,
        0.0,
        1.0
      ],
      "min": [
        -1.0,
        -1.0,
        -1.0
      ],
      "type": "VEC3"
    },
    {
      "bufferView": 3,
      "byteOffset": 5856,
      "componentType": 5126,
      "count": 36,
      "max": [
        1.0,
        0.41093921661376953,
        1.0,
        1.0
      ],
      "min": [
        -1.0,
        -0.4109397828578949,
        -1.0,
        1.0
      ],
      "type": "VEC4"
    },
    {
      "bufferView": 1,
      "byteOffset": 2928,
      "componentType": 5126,
      "count": 36,
      "max": [
        0.2429594099521637,
        0.6227597594261169
      ],
      "min": [
        0.0028118924237787724,
        0.43032482266426086
      ],
      "type": "VEC2"
    },
    {
      "bufferView": 0,
      "byteOffset": 3504,
      "componentType": 5125,
      "count": 54,
      "type": "SCALAR"
    },
    {
      "bufferView": 2,
      "byteOffset": 9648,
      "componentType": 5126,
      "count": 90,
      "max": [
        0.017680812627077103,
        0.02143383026123047,
        0.07152372598648071
      ],
      "min": [
        -0.017680734395980835,
        -0.027736902236938477,
        -0.07152342796325684
      ],
      "type": "VEC3"
    },
    {
      "bufferView": 2,
      "byteOffset": 10728,
      "componentType": 5126,
      "count": 90,
      "max": [
        1.0,
        0.8483173251152039,
        1.0
      ],
      "min": [
        -1.0,
        -1.0,
        -1.0
      ],
      "type": "VEC3"
    },
    {
      "bufferView": 3,
      "byteOffset": 6432,
      "componentType": 5126,
      "count": 90,
      "max": [
        0.8559423685073853,
        0.9591548442840576,
        0.927976131439209,
        1.0
      ],
      "min": [
        -1.0,
        -1.0,
        -0.9324440360069275,
        1.0
      ],
      "type": "VEC4"
    },
    {
      "bufferView": 1,
      "byteOffset": 3216,
      "componentType": 5126,
      "count": 90,
      "max": [
        0.92242431640625,
        0.9955157041549683
      ],
      "min": [
        0.6401832103729248,
        0.8426313400268555
      ],
      "type": "VEC2"
    },
    {
      "bufferView": 0,
      "byteOffset": 3720,
      "componentType": 5125,
      "count": 354,
      "type": "SCALAR"
    },
    {
      "bufferView": 2,
      "byteOffset": 11808,
      "componentType": 5126,
      "count": 90,
      "max": [
        0.017680730670690536,
        0.02143383026123047,
        0.07152372598648071
      ],
      "min": [
        -0.0176808163523674,
        -0.027736902236938477,
        -0.07152342796325684
      ],
      "type": "VEC3"
    },
    {
      "bufferView": 2,
      "byteOffset": 12888,
      "componentType": 5126,
      "count": 90,
      "max": [
        1.0,
        0.8483173251152039,
        1.0
      ],
      "min": [
        -1.0,
        -1.0,
        -1.0
      ],
      "type": "VEC3"
    },
    {
      "bufferView": 3,
      "byteOffset": 7872,
      "componentType": 5126,
      "count": 90,
      "max": [
        0.8840187788009644,
        1.0,
        0.927984893321991,
        1.0
      ],
      "min": [
        -1.0,
        -1.0,
        -0.9324479103088379,
        1.0
      ],
      "type": "VEC4"
    },
    {
      "bufferView": 1,
      "byteOffset": 3936,
      "componentType": 5126,
      "count": 90,
      "max": [
        0.8930654525756836,
        0.9958409070968628
      ],
      "min": [
        0.7181341052055359,
        0.8445422053337097
      ],
      "type": "VEC2"
    },
    {
      "bufferView": 0,
      "byteOffset": 5136,
      "componentType": 5125,
      "count": 354,
      "type": "SCALAR"
    },
    {
      "bufferView": 2,
      "byteOffset": 13968,
      "componentType": 5126,
      "count": 36,
      "max": [
        0.07690402865409851,
        0.00474780797958374,
        0.10000014305114746
      ],
      "min": [
        -0.07690407335758209,
        -0.0038090944290161133,
        -0.09999990463256836
      ],
      "type": "VEC3"
    },
    {
      "bufferView": 2,
      "byteOffset": 14400,
      "componentType": 5126,
      "count": 36,
      "max": [
        1.0,
        0.0,
        1.0
      ],
      "min": [
        -1.0,
        -1.0,
        -1.0
      ],
      "type": "VEC3"
    },
    {
      "bufferView": 3,
      "byteOffset": 9312,
      "componentType": 5126,
      "count": 36,
      "max": [
        0.0,
        0.41093915700912476,
        1.0,
        1.0
      ],
      "min": [
        -1.0,
        -0.41093969345092773,
        -0.08827438205480576,
        1.0
      ],
      "type": "VEC4"
    },
    {
      "bufferView": 1,
      "byteOffset": 4656,
      "componentType": 5126,
      "count": 36,
      "max": [
        0.23903067409992218,
        0.614162027835846
      ],
      "min": [
        0.0032397271133959293,
        0.43039199709892273
      ],
      "type": "VEC2"
    },
    {
      "bufferView": 0,
      "byteOffset": 6552,
      "componentType": 5125,
      "count": 54,
      "type": "SCALAR"
    },
    {
      "bufferView": 2,
      "byteOffset": 14832,
      "componentType": 5126,
      "count": 312,
      "max": [
        0.392545610666275,
        -0.2800000011920929,
        1.4969725608825684
      ],
      "min": [
        -0.392545610666275,
        -0.2861255705356598,
        0.23165547847747803
      ],
      "type": "VEC3"
    },
    {
      "bufferView": 2,
      "byteOffset": 18576,
      "componentType": 5126,
      "count": 312,
      "max": [
        1.0,
        1.0,
        1.0
      ],
      "min": [
        -1.0,
        -0.9790141582489014,
        -1.0
      ],
      "type": "VEC3"
    },
    {
      "bufferView": 3,
      "byteOffset": 9888,
      "componentType": 5126,
      "count": 312,
      "max": [
        1.0,
        0.6188082098960876,
        9.81004359346116e-06,
        1.0
      ],
      "min": [
        -1.0,
        -1.0,
        -1.0,
        -1.0
      ],
      "type": "VEC4"
    },
    {
      "bufferView": 1,
      "byteOffset": 4944,
      "componentType": 5126,
      "count": 312,
      "max": [
        0.8222091197967529,
        0.7364173531532288
      ],
      "min": [
        0.5378154516220093,
        0.4367237091064453
      ],
      "type": "VEC2"
    },
    {
      "bufferView": 0,
      "byteOffset": 6768,
      "componentType": 5125,
      "count": 648,
      "type": "SCALAR"
    },
    {
      "bufferView": 2,
      "byteOffset": 22320,
      "componentType": 5126,
      "count": 35,
      "max": [
        0.00952713843435049,
        0.00952713843435049,
        0.006351706106215715
      ],
      "min": [
        -0.00952713843435049,
        -0.00952713843435049,
        0.0
      ],
      "type": "VEC3"
    },
    {
      "bufferView": 2,
      "byteOffset": 22740,
      "componentType": 5126,
      "count": 35,
      "max": [
        1.0,
        1.0,
        1.0
      ],
      "min": [
        -1.0,
        -1.0,
        -1.400775744286875e-07
      ],
      "type": "VEC3"
    },
    {
      "bufferView": 3,
      "byteOffset": 14880,
      "componentType": 5126,
      "count": 35,
      "max": [
        1.0,
        1.0,
        0.5139821171760559,
        1.0
      ],
      "min": [
        -1.0,
        -1.0,
        -0.5139821171760559,
        1.0
      ],
      "type": "VEC4"
    },
    {
      "bufferView": 1,
      "byteOffset": 7440,
      "componentType": 5126,
      "count": 35,
      "max": [
        0.5500739216804504,
        0.972827672958374
      ],
      "min": [
        0.3619842231273651,
        0.8482417464256287
      ],
      "type": "VEC2"
    },
    {
      "bufferView": 0,
      "byteOffset": 9360,
      "componentType": 5125,
      "count": 120,
      "type": "SCALAR"
    }
  ],
  "asset": {
    "extras": {
      "author": "Agustín Hönnun (https://sketchfab.com/Agustin_Honnun)",
      "license": "CC-BY-4.0 (http://creativecommons.org/licenses/by/4.0/)",
      "source": "https://sketchfab.com/3d-models/locker-dead-by-daylight-fan-art-free-737b88eb68b540ff9b9d7da23a33f00a",
      "title": "Locker | Dead By Daylight fan art | FREE"
    },
    "generator": "Sketchfab-12.67.0",
    "version": "2.0"
  },
  "bufferViews": [
    {
      "buffer": 0,
      "byteLength": 9840,
      "name": "floatBufferViews",
      "target": 34963
    },
    {
      "buffer": 0,
      "byteLength": 7720,
      "byteOffset": 9840,
      "byteStride": 8,
      "name": "floatBufferViews",
      "target": 34962
    },
    {
      "buffer": 0,
      "byteLength": 23160,
      "byteOffset": 17560,
      "byteStride": 12,
      "name": "floatBufferViews",
      "target": 34962
    },
    {
      "buffer": 0,
      "byteLength": 15440,
      "byteOffset": 40720,
      "byteStride": 16,
      "name": "floatBufferViews",
      "target": 34962
    }
  ],
  "buffers": [
    {
      "byteLength": 56160,
      "uri": "caja.bin"
    }
  ],
  "images": [
    {
      "uri": "textures/Locker_MAT_baseColor.png"
    },
    {
      "uri": "textures/Locker_MAT_metallicRoughness.png"
    },
    {
      "uri": "textures/Locker_MAT_normal.png"
    }
  ],
  "materials": [
    {
      "doubleSided": true,
      "name": "Locker_MAT",
      "normalTexture": {
        "index": 2
      },
      "pbrMetallicRoughness": {
        "baseColorTexture": {
          "index": 0
        },
        "metallicRoughnessTexture": {
          "index": 1
        }
      }
    }
  ],
  "meshes": [
    {
      "name": "Locker_low_Locker_MAT_0",
      "primitives": [
        {
          "attributes": {
            "NORMAL": 1,
            "POSITION": 0,
            "TANGENT": 2,
            "TEXCOORD_0": 3
          },
          "indices": 4,
          "material": 0,
          "mode": 4
        }
      ]
    },
    {
      "name": "Top_low_Locker_MAT_0",
      "primitives": [
        {
          "attributes": {
            "NORMAL": 6,
            "POSITION": 5,
            "TANGENT": 7,
            "TEXCOORD_0": 8
          },
          "indices": 9,
          "material": 0,
          "mode": 4
        }
      ]
    },
    {
      "name": "Grill_1_low_Locker_MAT_0",
      "primitives": [
        {
          "attributes": {
            "NORMAL": 11,
            "POSITION": 10,
            "TANGENT": 12,
            "TEXCOORD_0": 13
          },
          "indices": 14,
          "material": 0,
          "mode": 4
        }
      ]
    },
    {
      "name": "Handle_1_low_Locker_MAT_0",
      "primitives": [
        {
          "attributes": {
            "NORMAL": 16,
            "POSITION": 15,
            "TANGENT": 17,
            "TEXCOORD_0": 18
          },
          "indices": 19,
          "material": 0,
          "mode": 4
        }
      ]
    },
    {
      "name": "Handle_2_low_Locker_MAT_0",
      "primitives": [
        {
          "attributes": {
            "NORMAL": 21,
            "POSITION": 20,
            "TANGENT": 22,
            "TEXCOORD_0": 23
          },
          "indices": 24,
          "material": 0,
          "mode": 4
        }
      ]
    },
    {
      "name": "Grill_2_low_Locker_MAT_0",
      "primitives": [
        {
          "attributes": {
            "NORMAL": 26,
            "POSITION": 25,
            "TANGENT": 27,
            "TEXCOORD_0": 28
          },
          "indices": 29,
          "material": 0,
          "mode": 4
        }
      ]
    },
    {
      "name": "Hinges_low_Locker_MAT_0",
      "primitives": [
        {
          "attributes": {
            "NORMAL": 31,
            "POSITION": 30,
            "TANGENT": 32,
            "TEXCOORD_0": 33
          },
          "indices": 34,
          "material": 0,
          "mode": 4
        }
      ]
    },
    {
      "name": "Keyslot_low_Locker_MAT_0",
      "primitives": [
        {
          "attributes": {
            "NORMAL": 36,
            "POSITION": 35,
            "TANGENT": 37,
            "TEXCOORD_0": 38
          },
          "indices": 39,
          "material": 0,
          "mode": 4
        }
      ]
    }
  ],
  "nodes": [
    {
      "children": [
        1
      ],
      "matrix": [
        0.013147702440619469,
        0.0,
        0.0,
        0.0,
        0.0,
        2.91937639409922e-18,
        -0.013147702440619469,
        0.0,
        0.0,
        0.013147702440619469,
        2.91937639409922e-18,
        0.0,
        0.0,
        0.0,
        0.0,
        1.0
      ],
      "name": "Sketchfab_model"
    },
    {
      "children": [
        2
      ],
      "matrix": [
        1.0,
        0.0,
        0.0,
        0.0,
        0.0,
        0.0,
        1.0,
        0.0,
        0.0,
        -1.0,
        0.0,
        0.0,
        0.0,
        0.0,
        0.0,
        1.0
      ],
      "name": "533e6c30ba2247fcadcccc84fb37e1cb.fbx"
    },
    {
      "children": [
        3,
        5,
        7,
        9,
        11,
        13,
        15,
        17
      ],
      "name": "RootNode"
    },
    {
      "children": [
        4
      ],
      "matrix": [
        100.0,
        0.0,
        0.0,
        0.0,
        0.0,
        -1.629206793918314e-05,
        -99.99999999999868,
        0.0,
        0.0,
        99.99999999999868,
        -1.629206793918314e-05,
        0.0,
        0.0,
        0.0,
        0.0,
        1.0
      ],
      "name": "Locker_low"
    },
    {
      "mesh": 0,
      "name": "Locker_low_Locker_MAT_0"
    },
    {
      "children": [
        6
      ],
      "matrix": [
        100.0,
        0.0,
        0.0,
        0.0,
        0.0,
        -1.629206793918314e-05,
        -99.99999999999868,
        0.0,
        0.0,
        99.99999999999868,
        -1.629206793918314e-05,
        0.0,
        2.5353872388222953e-06,
        168.7515869140625,
        4.78564925288083e-06,
        1.0
      ],
      "name": "Top_low"
    },
    {
      "mesh": 1,
      "name": "Top_low_Locker_MAT_0"
    },
    {
      "children": [
        8
      ],
      "matrix": [
        100.0,
        0.0,
        0.0,
        0.0,
        -0.0,
        -1.629206793918314e-05,
        -99.99999999999868,
        0.0,
        0.0,
        99.99999999999868,
        -1.629206793918314e-05,
        0.0,
        -19.136056900024414,
        137.298828125,
        26.919466018676758,
        1.0
      ],
      "name": "Grill_1_low"
    },
    {
      "mesh": 2,
      "name": "Grill_1_low_Locker_MAT_0"
    },
    {
      "children": [
        10
      ],
      "matrix": [
        100.0,
        0.0,
        0.0,
        0.0,
        -0.0,
        -1.629206793918314e-05,
        -99.99999999999868,
        0.0,
        0.0,
        99.99999999999868,
        -1.629206793918314e-05,
        0.0,
        -6.000003337860107,
        85.87405395507813,
        28.58806610107422,
        1.0
      ],
      "name": "Handle_1_low"
    },
    {
      "mesh": 3,
      "name": "Handle_1_low_Locker_MAT_0"
    },
    {
      "children": [
        12
      ],
      "matrix": [
        100.0,
        0.0,
        0.0,
        0.0,
        0.0,
        -1.629206793918314e-05,
        -99.99999999999868,
        0.0,
        0.0,
        99.99999999999868,
        -1.629206793918314e-05,
        0.0,
        6.000003814697266,
        85.87405395507813,
        28.58806610107422,
        1.0
      ],
      "name": "Handle_2_low"
    },
    {
      "mesh": 4,
      "name": "Handle_2_low_Locker_MAT_0"
    },
    {
      "children": [
        14
      ],
      "matrix": [
        100.0,
        0.0,
        0.0,
        0.0,
        0.0,
        -1.629206793918314e-05,
        -99.99999999999868,
        0.0,
        0.0,
        99.99999999999868,
        -1.629206793918314e-05,
        0.0,
        19.136056900024414,
        137.298828125,
        26.919466018676758,
        1.0
      ],
      "name": "Grill_2_low"
    },
    {
      "mesh": 5,
      "name": "Grill_2_low_Locker_MAT_0"
    },
    {
      "children": [
        16
      ],
      "matrix": [
        100.0,
        0.0,
        0.0,
        0.0,
        0.0,
        -1.629206793918314e-05,
        -99.99999999999868,
        0.0,
        0.0,
        99.99999999999868,
        -1.629206793918314e-05,
        0.0,
        0.0,
        0.0,
        0.0,
        1.0
      ],
      "name": "Hinges_low"
    },
    {
      "mesh": 6,
      "name": "Hinges_low_Locker_MAT_0"
    },
    {
      "children": [
        18
      ],
      "matrix": [
        100.0,
        0.0,
        0.0,
        0.0,
        0.0,
        99.99999999999972,
        -7.5497901264043296e-06,
        0.0,
        0.0,
        7.5497901264043296e-06,
        99.99999999999972,
        0.0,
        -5.999998569488525,
        95.70509338378906,
        26.444683074951172,
        1.0
      ],
      "name": "Keyslot_low"
    },
    {
      "mesh": 7,
      "name": "Keyslot_low_Locker_MAT_0"
    }
  ],
  "samplers": [
    {
      "magFilter": 9729,
      "minFilter": 9987,
      "wrapS": 10497,
      "wrapT": 10497
    }
  ],
  "caja": 0,
  "scenes": [
    {
      "name": "Sketchfab_Scene",
      "nodes": [
        0
      ]
    }
  ],
  "textures": [
    {
      "sampler": 0,
      "source": 0
    },
    {
      "sampler": 0,
      "source": 1
    },
    {
      "sampler": 0,
      "source": 2
    }
  ]
}
